<?xml version="1.0" standalone="no"?>
<!DOCTYPE svg PUBLIC "-//W3C//DTD SVG 20010904//EN"
 "http://www.w3.org/TR/2001/REC-SVG-20010904/DTD/svg10.dtd">
<svg version="1.0" xmlns="http://www.w3.org/2000/svg"
 width="800.000000pt" height="800.000000pt" viewBox="0 0 800.000000 800.000000"
 preserveAspectRatio="xMidYMid meet">

<g transform="translate(0.000000,800.000000) scale(0.100000,-0.100000)"
fill="#000000" stroke="none">
<path d="M3675 7528 c-128 -12 -176 -33 -204 -92 -27 -54 -26 -81 2 -136 35
-70 70 -83 199 -76 l108 6 -7 -232 c-3 -128 -6 -234 -7 -235 -1 -1 -57 -9
-126 -18 -206 -26 -408 -77 -616 -153 l-81 -29 -53 108 c-30 60 -52 110 -49
112 2 2 33 17 69 32 78 34 108 58 127 104 31 73 -13 157 -95 182 -39 11 -48
10 -134 -22 -51 -19 -174 -74 -273 -124 -150 -75 -183 -96 -199 -123 -38 -67
-19 -147 43 -189 50 -34 94 -29 190 17 46 22 85 39 86 38 6 -6 85 -209 85
-218 0 -5 -42 -32 -92 -61 -185 -104 -445 -296 -547 -403 -19 -20 -38 -36 -43
-36 -9 0 -348 289 -348 297 0 3 23 31 52 62 68 74 88 109 88 151 0 109 -122
186 -218 136 -35 -18 -290 -279 -370 -379 -68 -86 -77 -107 -69 -173 10 -94
122 -153 206 -109 16 8 58 47 95 87 l66 73 157 -164 c87 -90 159 -167 160
-170 2 -3 -23 -37 -54 -76 -125 -155 -301 -450 -370 -621 l-21 -52 -117 37
c-132 41 -125 28 -80 151 33 88 30 132 -13 178 -52 56 -140 60 -196 9 -31 -27
-103 -196 -167 -389 -54 -163 -57 -188 -31 -237 44 -82 171 -95 233 -25 9 11
27 51 39 89 13 39 24 72 26 74 2 2 55 -18 117 -44 l114 -47 -29 -106 c-55
-205 -87 -426 -101 -692 l-2 -45 -195 -17 c-107 -9 -211 -17 -231 -17 l-36 -1
-5 105 c-4 85 -9 111 -25 133 -65 88 -169 96 -242 18 -36 -38 -46 -179 -31
-416 16 -262 28 -302 95 -334 78 -37 167 -10 207 64 17 30 19 48 14 128 l-7
94 233 -7 c128 -4 234 -9 236 -10 2 -2 9 -48 17 -103 13 -93 48 -275 61 -314
7 -24 18 -24 -431 26 -209 23 -381 39 -383 34 -2 -4 1 -32 8 -61 l11 -53 562
-63 c582 -64 599 -67 616 -114 10 -28 -91 -994 -108 -1024 -6 -13 -24 -26 -38
-29 -22 -6 -243 14 -497 43 l-48 6 43 -65 43 -65 208 -23 c115 -12 229 -20
254 -17 77 8 121 48 170 155 2 3 217 -84 242 -97 10 -6 -19 -46 -104 -147 -64
-76 -119 -141 -121 -143 -1 -2 -34 26 -72 62 -74 71 -102 87 -158 87 -105 0
-175 -99 -138 -195 24 -64 368 -394 462 -443 53 -29 147 -4 186 49 26 36 33
106 14 151 -9 21 -40 56 -75 84 -33 27 -60 54 -60 59 1 6 76 83 167 172 l166
162 65 -51 c121 -95 305 -209 464 -289 88 -43 161 -81 164 -83 4 -5 -67 -228
-76 -238 -4 -3 -45 9 -91 29 -99 41 -134 39 -188 -10 -58 -54 -56 -145 4 -199
62 -56 523 -214 589 -202 73 14 133 107 118 183 -12 57 -52 85 -148 106 -48
10 -88 21 -90 24 -5 7 80 211 93 223 4 5 45 -3 91 -16 197 -57 404 -92 615
-104 l130 -7 17 -205 c9 -113 17 -222 17 -243 l1 -38 -98 3 c-86 2 -103 -1
-134 -20 -95 -59 -88 -203 13 -254 72 -37 612 -13 682 31 47 29 71 76 70 138
0 65 -27 112 -77 137 -37 18 -41 18 -138 1 -54 -9 -101 -15 -104 -12 -3 2 -2
110 2 239 l7 235 101 12 c192 22 451 85 624 151 42 17 80 30 84 30 8 0 118
-213 118 -229 0 -5 -33 -22 -72 -37 -40 -15 -81 -35 -92 -43 -47 -41 -60 -123
-27 -177 21 -35 75 -64 118 -64 79 0 524 215 565 273 50 70 18 185 -60 223
-47 22 -85 12 -171 -42 -40 -26 -75 -44 -78 -40 -8 8 -94 228 -91 231 2 1 53
30 113 65 181 103 318 202 495 360 l75 67 180 -153 c99 -85 181 -157 183 -162
1 -4 -29 -38 -67 -75 -76 -72 -89 -104 -76 -174 9 -47 63 -100 111 -109 65
-12 102 9 215 118 122 119 294 323 316 375 50 122 -99 259 -216 199 -15 -8
-47 -44 -70 -80 -66 -101 -61 -100 -147 -15 -42 41 -116 118 -165 171 l-90 97
51 63 c94 114 231 330 307 484 l76 151 121 -39 c66 -22 122 -41 122 -41 1 -1
-11 -36 -28 -77 -43 -109 -29 -178 44 -216 78 -40 158 -10 200 76 68 141 178
464 178 525 0 94 -118 158 -206 112 -42 -22 -57 -47 -88 -150 -15 -48 -29 -87
-32 -87 -9 0 -219 91 -226 98 -4 4 6 52 22 107 56 190 94 408 106 613 l7 112
31 5 c29 4 407 35 434 35 8 0 12 -22 12 -78 0 -94 26 -156 79 -186 73 -42 171
-12 207 61 38 81 12 630 -33 691 -45 62 -151 80 -211 35 -53 -39 -64 -75 -56
-201 l6 -112 -238 2 -238 3 -13 112 c-11 104 -55 339 -69 377 -3 9 -4 16 -1
16 2 0 186 -20 407 -45 222 -25 405 -43 407 -41 6 6 -7 91 -17 106 -6 10 -163
31 -567 76 -307 34 -566 65 -576 69 -25 10 -37 37 -37 82 0 21 23 250 50 508
49 466 50 470 75 493 32 27 14 27 318 -7 136 -15 247 -25 247 -23 0 17 -85
123 -103 127 -12 2 -113 14 -225 26 -166 18 -210 20 -243 10 -51 -15 -101 -60
-124 -111 -10 -22 -21 -40 -25 -40 -4 0 -49 17 -99 38 l-92 38 102 120 c55 65
107 125 115 133 12 13 22 6 77 -47 70 -66 95 -77 164 -69 84 9 136 88 119 181
-9 48 -140 185 -328 342 -158 133 -187 146 -258 125 -42 -12 -86 -58 -96 -97
-4 -14 -4 -46 -1 -72 5 -48 33 -82 142 -170 l40 -32 -159 -159 c-188 -188
-160 -183 -332 -55 -141 106 -296 200 -454 276 -69 33 -127 62 -130 65 -4 4
69 233 75 233 2 0 39 -13 82 -30 84 -33 107 -36 150 -19 92 35 120 162 49 228
-51 48 -493 211 -573 211 -103 0 -168 -118 -113 -207 25 -42 50 -57 140 -84
41 -12 76 -23 78 -24 7 -6 -98 -230 -107 -227 -6 1 -71 18 -144 37 -176 46
-333 72 -525 86 l-159 12 -17 211 c-9 116 -16 221 -16 234 0 21 3 22 91 22 75
0 98 4 130 22 79 44 99 150 42 219 -47 56 -63 59 -280 58 -109 -1 -243 -6
-298 -11z m1785 -1458 c131 -25 308 -84 566 -189 193 -79 219 -92 222 -113 2
-20 -47 -520 -63 -644 l-6 -42 -153 -7 c-346 -16 -605 54 -758 205 l-67 66
-278 29 c-153 15 -292 34 -310 41 -87 34 -75 167 17 188 14 4 171 -9 348 -29
336 -36 350 -36 372 5 15 28 12 46 -12 74 -22 25 -33 26 -358 60 -224 24 -347
33 -370 27 -52 -12 -101 -40 -135 -77 -25 -27 -89 -55 -379 -169 -365 -143
-375 -146 -430 -110 -33 22 -56 73 -49 110 4 18 28 51 62 85 105 103 381 228
812 368 277 90 428 124 644 146 69 7 226 -5 325 -24z m-1871 -1105 c103 -33
182 -86 300 -200 54 -52 101 -95 106 -95 4 0 60 51 124 113 86 83 133 121 182
144 244 120 527 76 714 -112 203 -202 238 -525 84 -766 -53 -83 -1074 -1109
-1104 -1109 -28 0 -1032 1004 -1091 1091 -174 260 -138 595 84 801 90 83 214
140 347 161 57 9 178 -4 254 -28z m-1199 -2064 c136 -36 262 -102 338 -177 35
-35 66 -64 67 -64 51 0 571 -63 590 -72 66 -30 72 -121 11 -170 -28 -23 -35
-23 -386 14 -168 17 -317 28 -331 25 -34 -9 -54 -53 -40 -90 7 -18 21 -29 48
-36 62 -17 643 -74 686 -67 55 9 109 39 145 80 17 20 34 36 37 36 3 0 155 59
337 130 218 85 344 130 369 130 28 0 47 -8 73 -30 46 -41 52 -71 25 -127 -54
-112 -330 -250 -819 -411 -686 -226 -916 -218 -1579 55 -113 47 -210 89 -215
93 -4 5 6 144 23 317 41 397 39 381 65 387 11 2 122 3 246 2 195 -3 237 -6
310 -25z"/>
</g>
</svg>
